<svg width="40" height="40" viewBox="0 0 40 40" fill="none" xmlns="http://www.w3.org/2000/svg">
<path d="M5 12.5003C5 12.0401 5.3731 11.667 5.83333 11.667H34.1667C34.6268 11.667 35 12.0401 35 12.5003C35 12.9606 34.6268 13.3337 34.1667 13.3337H5.83333C5.3731 13.3337 5 12.9606 5 12.5003Z" fill="#76768F"/>
<path d="M5.83333 19.167C5.3731 19.167 5 19.54 5 20.0003C5 20.4605 5.3731 20.8337 5.83333 20.8337H34.1667C34.6268 20.8337 35 20.4605 35 20.0003C35 19.54 34.6268 19.167 34.1667 19.167H5.83333Z" fill="#76768F"/>
<path d="M5 27.5003C5 27.0402 5.3731 26.667 5.83333 26.667H34.1667C34.6268 26.667 35 27.0402 35 27.5003C35 27.9605 34.6268 28.3337 34.1667 28.3337H5.83333C5.3731 28.3337 5 27.9605 5 27.5003Z" fill="#76768F"/>
</svg>
