<svg width="24" height="24" viewBox="0 0 24 24" fill="none" xmlns="http://www.w3.org/2000/svg">
<path d="M20.6316 16.5881C20.101 15.675 19.3125 13.0997 19.3125 9.75C19.3125 7.8106 18.5421 5.95064 17.1707 4.57928C15.7994 3.20792 13.9394 2.4375 12 2.4375C10.0606 2.4375 8.20066 3.20792 6.82931 4.57928C5.45795 5.95064 4.68752 7.8106 4.68752 9.75C4.68752 13.1006 3.89815 15.675 3.36752 16.5881C3.2511 16.7875 3.18932 17.014 3.18843 17.2449C3.18753 17.4758 3.24754 17.7028 3.36241 17.903C3.47728 18.1033 3.64294 18.2697 3.84268 18.3855C4.04241 18.5013 4.26916 18.5623 4.50002 18.5625H8.48252C8.61915 19.3964 9.04772 20.1545 9.6917 20.7016C10.3357 21.2486 11.1532 21.549 11.9981 21.549C12.8431 21.549 13.6606 21.2486 14.3046 20.7016C14.9486 20.1545 15.3771 19.3964 15.5138 18.5625H19.5C19.7307 18.562 19.9572 18.5007 20.1567 18.3848C20.3562 18.2689 20.5216 18.1024 20.6362 17.9022C20.7509 17.702 20.8107 17.4751 20.8097 17.2444C20.8088 17.0137 20.747 16.7874 20.6306 16.5881H20.6316ZM12 20.4375C11.4515 20.4373 10.9191 20.2521 10.4888 19.9119C10.0586 19.5716 9.75567 19.0962 9.62909 18.5625H14.371C14.2444 19.0962 13.9415 19.5716 13.5112 19.9119C13.081 20.2521 12.5485 20.4373 12 20.4375ZM19.6603 17.3438C19.6449 17.3725 19.6219 17.3964 19.5938 17.4129C19.5657 17.4295 19.5336 17.438 19.501 17.4375H4.50002C4.46742 17.438 4.43532 17.4295 4.40722 17.4129C4.37912 17.3964 4.35609 17.3725 4.34065 17.3438C4.32419 17.3152 4.31553 17.2829 4.31553 17.25C4.31553 17.2171 4.32419 17.1848 4.34065 17.1562C5.05034 15.9375 5.81252 13.0959 5.81252 9.75C5.81252 8.10897 6.46442 6.53516 7.6248 5.37478C8.78518 4.2144 10.359 3.5625 12 3.5625C13.6411 3.5625 15.2149 4.2144 16.3752 5.37478C17.5356 6.53516 18.1875 8.10897 18.1875 9.75C18.1875 13.095 18.9506 15.9328 19.6603 17.1562C19.6768 17.1848 19.6855 17.2171 19.6855 17.25C19.6855 17.2829 19.6768 17.3152 19.6603 17.3438Z" fill="#4C4C5C"/>
</svg>
